<svg aria-hidden="true" style="position: absolute; width: 0; height: 0; overflow: hidden;" version="1.1" xmlns="http://www.w3.org/2000/svg" xmlns:xlink="http://www.w3.org/1999/xlink">
<defs>
<symbol id="icon-close" viewBox="0 0 32 32">
<path d="M29.581 28.575l-1.006 1.006c-0.555 0.555-1.456 0.555-2.011 0l-11.565-11.565-11.565 11.565c-0.555 0.556-1.456 0.556-2.011 0l-1.006-1.006c-0.555-0.555-0.555-1.456 0-2.011l11.565-11.565-11.565-11.565c-0.555-0.555-0.555-1.456 0-2.011l1.006-1.006c0.555-0.555 1.456-0.555 2.011 0l11.565 11.565 11.565-11.565c0.556-0.555 1.456-0.555 2.011 0l1.006 1.006c0.555 0.555 0.555 1.456 0 2.011l-11.565 11.565 11.565 11.565c0.555 0.556 0.555 1.456 0 2.012z"></path>
</symbol>
</defs>
</svg>
